<svg width="24" height="32" viewBox="0 0 24 32" fill="none" xmlns="http://www.w3.org/2000/svg">
<path d="M4.5 16.125C3.8 16.125 3.20833 15.8833 2.725 15.4C2.24167 14.9167 2 14.325 2 13.625C2 12.925 2.24167 12.3333 2.725 11.85C3.20833 11.3667 3.8 11.125 4.5 11.125C5.2 11.125 5.79167 11.3667 6.275 11.85C6.75833 12.3333 7 12.925 7 13.625C7 14.325 6.75833 14.9167 6.275 15.4C5.79167 15.8833 5.2 16.125 4.5 16.125ZM9 12.125C8.3 12.125 7.70833 11.8833 7.225 11.4C6.74167 10.9167 6.5 10.325 6.5 9.625C6.5 8.925 6.74167 8.33333 7.225 7.85C7.70833 7.36667 8.3 7.125 9 7.125C9.7 7.125 10.2917 7.36667 10.775 7.85C11.2583 8.33333 11.5 8.925 11.5 9.625C11.5 10.325 11.2583 10.9167 10.775 11.4C10.2917 11.8833 9.7 12.125 9 12.125ZM15 12.125C14.3 12.125 13.7083 11.8833 13.225 11.4C12.7417 10.9167 12.5 10.325 12.5 9.625C12.5 8.925 12.7417 8.33333 13.225 7.85C13.7083 7.36667 14.3 7.125 15 7.125C15.7 7.125 16.2917 7.36667 16.775 7.85C17.2583 8.33333 17.5 8.925 17.5 9.625C17.5 10.325 17.2583 10.9167 16.775 11.4C16.2917 11.8833 15.7 12.125 15 12.125ZM19.5 16.125C18.8 16.125 18.2083 15.8833 17.725 15.4C17.2417 14.9167 17 14.325 17 13.625C17 12.925 17.2417 12.3333 17.725 11.85C18.2083 11.3667 18.8 11.125 19.5 11.125C20.2 11.125 20.7917 11.3667 21.275 11.85C21.7583 12.3333 22 12.925 22 13.625C22 14.325 21.7583 14.9167 21.275 15.4C20.7917 15.8833 20.2 16.125 19.5 16.125ZM6.65 26.125C5.9 26.125 5.27083 25.8375 4.7625 25.2625C4.25417 24.6875 4 24.0083 4 23.225C4 22.3583 4.29583 21.6 4.8875 20.95C5.47917 20.3 6.06667 19.6583 6.65 19.025C7.13333 18.5083 7.55 17.9458 7.9 17.3375C8.25 16.7292 8.66667 16.1583 9.15 15.625C9.51667 15.1917 9.94167 14.8333 10.425 14.55C10.9083 14.2667 11.4333 14.125 12 14.125C12.5667 14.125 13.0917 14.2583 13.575 14.525C14.0583 14.7917 14.4833 15.1417 14.85 15.575C15.3167 16.1083 15.7292 16.6833 16.0875 17.3C16.4458 17.9167 16.8667 18.4917 17.35 19.025C17.9333 19.6583 18.5208 20.3 19.1125 20.95C19.7042 21.6 20 22.3583 20 23.225C20 24.0083 19.7458 24.6875 19.2375 25.2625C18.7292 25.8375 18.1 26.125 17.35 26.125C16.45 26.125 15.5583 26.05 14.675 25.9C13.7917 25.75 12.9 25.675 12 25.675C11.1 25.675 10.2083 25.75 9.325 25.9C8.44167 26.05 7.55 26.125 6.65 26.125Z" fill="#00696F"/>
</svg>
