<svg width="16" height="17" viewBox="0 0 16 17" fill="none" xmlns="http://www.w3.org/2000/svg">
<path d="M6.66667 16.6667C4.73611 16.1806 3.14236 15.0729 1.88542 13.3438C0.628472 11.6146 0 9.69444 0 7.58333V2.5L6.66667 0L13.3333 2.5V5H11.6667V3.64583L6.66667 1.77083L1.66667 3.64583V7.58333C1.66667 9.26389 2.13889 10.7917 3.08333 12.1667C4.02778 13.5417 5.22222 14.4583 6.66667 14.9167C6.76389 14.8889 6.85417 14.8611 6.9375 14.8333C7.02083 14.8056 7.10417 14.7708 7.1875 14.7292C7.35417 14.9653 7.54167 15.191 7.75 15.4062C7.95833 15.6215 8.18056 15.8194 8.41667 16C8.13889 16.1528 7.85417 16.2847 7.5625 16.3958C7.27083 16.5069 6.97222 16.5972 6.66667 16.6667ZM10 16.6667L9.52083 14.75C9.02083 14.3889 8.62847 13.941 8.34375 13.4062C8.05903 12.8715 7.91667 12.2917 7.91667 11.6667C7.91667 11.0417 8.05903 10.4618 8.34375 9.92708C8.62847 9.39236 9.02083 8.94444 9.52083 8.58333L10 6.66667H13.3333L13.8125 8.58333C14.3125 8.94444 14.7049 9.39236 14.9896 9.92708C15.2743 10.4618 15.4167 11.0417 15.4167 11.6667C15.4167 12.2917 15.2743 12.8715 14.9896 13.4062C14.7049 13.941 14.3125 14.3889 13.8125 14.75L13.3333 16.6667H10ZM11.6667 13.75C12.25 13.75 12.7431 13.5486 13.1458 13.1458C13.5486 12.7431 13.75 12.25 13.75 11.6667C13.75 11.0833 13.5486 10.5903 13.1458 10.1875C12.7431 9.78472 12.25 9.58333 11.6667 9.58333C11.0833 9.58333 10.5903 9.78472 10.1875 10.1875C9.78472 10.5903 9.58333 11.0833 9.58333 11.6667C9.58333 12.25 9.78472 12.7431 10.1875 13.1458C10.5903 13.5486 11.0833 13.75 11.6667 13.75Z" fill="#171D1D"/>
</svg>
